<svg width="18" height="19" viewBox="0 0 18 19" fill="none" xmlns="http://www.w3.org/2000/svg">
<path fill-rule="evenodd" clip-rule="evenodd" d="M13 0.671387H5C2.23858 0.671387 0 2.90997 0 5.67139V13.6714C0 16.4328 2.23858 18.6714 5 18.6714H13C15.7614 18.6714 18 16.4328 18 13.6714V5.67139C18 2.90997 15.7614 0.671387 13 0.671387ZM16.25 13.6714C16.2445 15.464 14.7926 16.9159 13 16.9214H5C3.20735 16.9159 1.75549 15.464 1.75 13.6714V5.67139C1.75549 3.87874 3.20735 2.42688 5 2.42139H13C14.7926 2.42688 16.2445 3.87874 16.25 5.67139V13.6714ZM13.75 5.92139C14.3023 5.92139 14.75 5.47367 14.75 4.92139C14.75 4.36911 14.3023 3.92139 13.75 3.92139C13.1977 3.92139 12.75 4.36911 12.75 4.92139C12.75 5.47367 13.1977 5.92139 13.75 5.92139ZM9 5.17139C6.51472 5.17139 4.5 7.18611 4.5 9.67139C4.5 12.1567 6.51472 14.1714 9 14.1714C11.4853 14.1714 13.5 12.1567 13.5 9.67139C13.5027 8.47709 13.0294 7.33096 12.1849 6.48647C11.3404 5.64198 10.1943 5.16873 9 5.17139ZM6.25 9.67139C6.25 11.1902 7.4812 12.4214 9 12.4214C10.5188 12.4214 11.75 11.1902 11.75 9.67139C11.75 8.15259 10.5188 6.92139 9 6.92139C7.4812 6.92139 6.25 8.15259 6.25 9.67139Z" fill="black"/>
</svg>
