<?xml version="1.0" ?><!DOCTYPE svg  PUBLIC '-//W3C//DTD SVG 1.1//EN'  'http://www.w3.org/Graphics/SVG/1.1/DTD/svg11.dtd'><svg enable-background="new 0 0 1024 1024" height="1024px" id="Layer_1" version="1.1" viewBox="0 0 1024 1024" width="1024px" xml:space="preserve" xmlns="http://www.w3.org/2000/svg" xmlns:xlink="http://www.w3.org/1999/xlink"><g><g><path clip-rule="evenodd" d="M2,1024c11.896-43.556,23.271-85.259,34.677-126.958     c11.415-41.73,23.125-83.383,33.974-125.26c1.502-5.802,0.627-13.673-2.21-18.933C22.937,668.561,1.953,578.621,6.543,483.062     C16.517,275.41,154.253,93.714,351.611,26.895c289.388-97.981,599.896,81.401,660.419,381.531     C1066.263,677.35,893.873,943,625.436,1003.212c-119.861,26.888-234.835,11.613-344.37-43.86     c-7.336-3.716-13.628-4.402-21.567-2.294c-82.924,22.012-165.951,43.632-248.956,65.336C8.421,1022.946,6.227,1023.216,2,1024z      M123.864,903.489c4.938-1.022,7.521-1.439,10.041-2.097c45.181-11.778,90.436-23.289,135.463-35.627     c9.964-2.729,17.602-1.651,26.501,3.629c90.476,53.678,187.668,71.825,291.532,54.149     c226.824-38.599,382.014-259.242,342.573-487.231C890.217,206.491,672.061,52.714,442.049,92.375     C157.4,141.461,4.62,457.974,143.537,710.839c7.265,13.225,19.329,25.813,20.873,39.624c1.607,14.391-6.792,29.912-10.895,44.918     C143.833,830.784,134.103,866.174,123.864,903.489z" fill-rule="evenodd"/><path clip-rule="evenodd" d="M254.545,392.332c1.584-41.642,17.933-75.994,47.318-104.672     c11.051-10.783,24.244-14.651,39.431-14.455c35.988,0.47,36.739,0.8,50.314,33.699c11.434,27.711,22.811,55.449,34.559,83.027     c3.698,8.682,4.746,17.278-0.632,24.997c-9.725,13.96-19.857,27.698-30.711,40.791c-9.375,11.305-10.663,15.943-3.305,28.39     c41.274,69.813,99.243,120.139,174.941,149.841c9.839,3.86,17.715,2.171,24.335-6.013c12.671-15.653,25.603-31.098,38.021-46.947     c9.203-11.742,14.11-14.697,27.064-8.794c35.905,16.373,71.472,33.52,106.739,51.224c4.227,2.12,8.058,9.501,8.207,14.56     c1.141,38.12-11.066,69.416-45.161,90.944c-41.344,26.097-84.504,28.266-130.197,15.413     c-117.621-33.088-206.091-105.711-276.987-202.593c-24.565-33.568-47.665-67.874-57.432-109.072     C257.918,419.453,256.66,405.792,254.545,392.332z" fill-rule="evenodd"/></g></g></svg>